<svg width="32" height="32" viewBox="0 0 32 32" fill="none" xmlns="http://www.w3.org/2000/svg">
<rect width="32" height="32" fill="white" fill-opacity="0.01"/>
<path d="M6.4 28C5.74 28 5.1752 27.7652 4.7056 27.2956C4.236 26.826 4.0008 26.2608 4 25.6V12.4C4 11.74 4.2352 11.1752 4.7056 10.7056C5.176 10.236 5.7408 10.0008 6.4 10H12.4V6.4C12.4 5.74 12.6352 5.1752 13.1056 4.7056C13.576 4.236 14.1408 4.0008 14.8 4H17.2C17.86 4 18.4252 4.2352 18.8956 4.7056C19.366 5.176 19.6008 5.7408 19.6 6.4V10H25.6C26.26 10 26.8252 10.2352 27.2956 10.7056C27.766 11.176 28.0008 11.7408 28 12.4V25.6C28 26.26 27.7652 26.8252 27.2956 27.2956C26.826 27.766 26.2608 28.0008 25.6 28H6.4ZM6.4 25.6H25.6V12.4H19.6C19.6 13.06 19.3652 13.6252 18.8956 14.0956C18.426 14.566 17.8608 14.8008 17.2 14.8H14.8C14.14 14.8 13.5752 14.5652 13.1056 14.0956C12.636 13.626 12.4008 13.0608 12.4 12.4H6.4V25.6ZM8.8 23.2H16V22.66C16 22.32 15.9048 22.0048 15.7144 21.7144C15.524 21.424 15.2592 21.1992 14.92 21.04C14.52 20.86 14.1152 20.7252 13.7056 20.6356C13.296 20.546 12.8608 20.5008 12.4 20.5C11.9392 20.4992 11.504 20.5444 11.0944 20.6356C10.6848 20.7268 10.28 20.8616 9.88 21.04C9.54 21.2 9.2748 21.4252 9.0844 21.7156C8.894 22.006 8.7992 22.3208 8.8 22.66V23.2ZM18.4 21.4H23.2V19.6H18.4V21.4ZM12.4 19.6C12.9 19.6 13.3252 19.4252 13.6756 19.0756C14.026 18.726 14.2008 18.3008 14.2 17.8C14.1992 17.2992 14.0244 16.8744 13.6756 16.5256C13.3268 16.1768 12.9016 16.0016 12.4 16C11.8984 15.9984 11.4736 16.1736 11.1256 16.5256C10.7776 16.8776 10.6024 17.3024 10.6 17.8C10.5976 18.2976 10.7728 18.7228 11.1256 19.0756C11.4784 19.4284 11.9032 19.6032 12.4 19.6ZM18.4 17.8H23.2V16H18.4V17.8ZM14.8 12.4H17.2V6.4H14.8V12.4Z" fill="#0452A5"/>
</svg>
