<svg width="32" height="32" viewBox="0 0 32 32" fill="none" xmlns="http://www.w3.org/2000/svg">
<rect width="32" height="32" fill="white" fill-opacity="0.01"/>
<path d="M3.34756 28C3.09748 28 2.87013 27.9391 2.66552 27.8173C2.46091 27.6955 2.30177 27.5342 2.1881 27.3333C2.07443 27.1324 2.01213 26.9155 2.00122 26.6826C1.99031 26.4497 2.0526 26.2222 2.1881 26L14.8058 4.66667C14.9422 4.44444 15.1186 4.27778 15.335 4.16667C15.5515 4.05556 15.7729 4 15.9993 4C16.2258 4 16.4476 4.05556 16.665 4.16667C16.8823 4.27778 17.0583 4.44444 17.1929 4.66667L29.8105 26C29.947 26.2222 30.0097 26.4502 29.9988 26.684C29.9879 26.9177 29.9251 27.1342 29.8105 27.3333C29.696 27.5324 29.5368 27.6937 29.3331 27.8173C29.1294 27.9409 28.9021 28.0017 28.6511 28H3.34756ZM5.70058 25.3333H26.2981L15.9993 7.99999L5.70058 25.3333ZM15.9993 24C16.3858 24 16.71 23.872 16.9719 23.616C17.2338 23.36 17.3643 23.0435 17.3634 22.6666C17.3625 22.2897 17.2315 21.9733 16.9705 21.7173C16.7095 21.4613 16.3858 21.3333 15.9993 21.3333C15.6128 21.3333 15.2891 21.4613 15.0281 21.7173C14.7671 21.9733 14.6362 22.2897 14.6353 22.6666C14.6343 23.0435 14.7653 23.3604 15.0281 23.6173C15.2909 23.8742 15.6147 24.0017 15.9993 24ZM15.9993 20C16.3858 20 16.71 19.872 16.9719 19.616C17.2338 19.36 17.3643 19.0435 17.3634 18.6666V14.6666C17.3634 14.2889 17.2324 13.9724 16.9705 13.7173C16.7086 13.4622 16.3849 13.3342 15.9993 13.3333C15.6137 13.3324 15.29 13.4604 15.0281 13.7173C14.7662 13.9742 14.6353 14.2907 14.6353 14.6666V18.6666C14.6353 19.0444 14.7662 19.3613 15.0281 19.6173C15.29 19.8733 15.6137 20.0009 15.9993 20Z" fill="#0452A5"/>
</svg>
