<svg width="16" height="16" viewBox="0 0 16 16" fill="none" xmlns="http://www.w3.org/2000/svg">
<g clip-path="url(#clip0_1382_1549)">
<rect width="16" height="16" fill="white" fill-opacity="0.01"/>
<path d="M16 8.04888C16 3.60361 12.4183 0 8 0C3.58172 0 0 3.60361 0 8.04888C0 12.0662 2.92547 15.3962 6.75 16V10.3755H4.71875V8.04888H6.75V6.27562C6.75 4.25837 7.9444 3.1441 9.77168 3.1441C10.647 3.1441 11.5625 3.3013 11.5625 3.3013V5.28209H10.5538C9.56 5.28209 9.25 5.90258 9.25 6.53912V8.04888H11.4687L11.1141 10.3755H9.25V16C13.0746 15.3962 16 12.0664 16 8.04888Z" fill="#0452A5"/>
</g>
<defs>
<clipPath id="clip0_1382_1549">
<rect width="16" height="16" fill="white"/>
</clipPath>
</defs>
</svg>
