<svg width="32" height="32" viewBox="0 0 32 32" fill="none" xmlns="http://www.w3.org/2000/svg">
<rect width="32" height="32" fill="white" fill-opacity="0.01"/>
<path d="M9 19.4784H23C23.3967 19.4784 23.7294 19.3546 23.9982 19.1069C24.267 18.8592 24.4009 18.5531 24.4 18.1885C24.3991 17.8239 24.2647 17.5178 23.9968 17.2701C23.7289 17.0225 23.3967 16.8987 23 16.8987H9C8.60333 16.8987 8.27107 17.0225 8.0032 17.2701C7.73533 17.5178 7.60093 17.8239 7.6 18.1885C7.59907 18.5531 7.73347 18.8597 8.0032 19.1082C8.27293 19.3567 8.6052 19.4801 9 19.4784ZM9 15.6088H23C23.3967 15.6088 23.7294 15.485 23.9982 15.2373C24.267 14.9896 24.4009 14.6835 24.4 14.3189C24.3991 13.9543 24.2647 13.6482 23.9968 13.4005C23.7289 13.1529 23.3967 13.0291 23 13.0291H9C8.60333 13.0291 8.27107 13.1529 8.0032 13.4005C7.73533 13.6482 7.60093 13.9543 7.6 14.3189C7.59907 14.6835 7.73347 14.9901 8.0032 15.2386C8.27293 15.4871 8.6052 15.6105 9 15.6088ZM9 11.7392H23C23.3967 11.7392 23.7294 11.6154 23.9982 11.3677C24.267 11.1201 24.4009 10.8139 24.4 10.4493C24.3991 10.0847 24.2647 9.7786 23.9968 9.53094C23.7289 9.28329 23.3967 9.15946 23 9.15946H9C8.60333 9.15946 8.27107 9.28329 8.0032 9.53094C7.73533 9.7786 7.60093 10.0847 7.6 10.4493C7.59907 10.8139 7.73347 11.1205 8.0032 11.369C8.27293 11.6175 8.6052 11.7409 9 11.7392ZM4.8 24.6378C4.03 24.6378 3.37107 24.3855 2.8232 23.8807C2.27533 23.3759 2.00093 22.7684 2 22.0581V6.57973C2 5.8703 2.2744 5.26321 2.8232 4.75844C3.372 4.25367 4.03093 4.00086 4.8 4H27.2C27.97 4 28.6294 4.25281 29.1782 4.75844C29.727 5.26407 30.0009 5.87116 30 6.57973V26.6694C30 27.2498 29.7144 27.6531 29.1432 27.8793C28.572 28.1054 28.0643 28.0138 27.62 27.6045L24.4 24.6378H4.8ZM25.59 22.0581L27.2 23.5092V6.57973H4.8V22.0581H25.59Z" fill="#0452A5"/>
</svg>
