<svg width="32" height="32" viewBox="0 0 32 32" fill="none" xmlns="http://www.w3.org/2000/svg">
<rect width="32" height="32" fill="white" fill-opacity="0.01"/>
<path d="M16 20.7687C15.6033 20.7687 15.2706 20.6448 15.0018 20.3972C14.733 20.1495 14.5991 19.8434 14.6 19.4788C14.6009 19.1141 14.7353 18.808 15.0032 18.5604C15.2711 18.3127 15.6033 18.1889 16 18.1889C16.3967 18.1889 16.7289 18.3127 16.9968 18.5604C17.2647 18.808 17.3991 19.1141 17.4 19.4788C17.4009 19.8434 17.2665 20.1499 16.9968 20.3985C16.7271 20.647 16.3948 20.7704 16 20.7687ZM16 15.6091C15.6033 15.6091 15.2706 15.4852 15.0018 15.2376C14.733 14.9899 14.5991 14.6838 14.6 14.3192V9.15959C14.6 8.79412 14.7344 8.48798 15.0032 8.24118C15.272 7.99438 15.6043 7.87055 16 7.86969C16.3957 7.86883 16.728 7.99266 16.9968 8.24118C17.2656 8.4897 17.4 8.79584 17.4 9.15959V14.3192C17.4 14.6846 17.2656 14.9912 16.9968 15.2389C16.728 15.4865 16.3957 15.6099 16 15.6091ZM24.4 24.6383L27.62 27.6051C28.0633 28.0136 28.5711 28.1052 29.1432 27.8799C29.7153 27.6546 30.0009 27.2512 30 26.6699V6.57979C30 5.87035 29.7256 5.26324 29.1768 4.75846C28.628 4.25368 27.9691 4.00086 27.2 4H4.8C4.03 4 3.3706 4.25282 2.8218 4.75846C2.273 5.2641 1.99907 5.87121 2 6.57979V22.0586C2 22.768 2.27394 23.3755 2.8218 23.8812C3.36967 24.3868 4.02907 24.6392 4.8 24.6383H24.4ZM25.59 22.0586H4.8V6.57979H27.2V23.5097L25.59 22.0586Z" fill="#0452A5"/>
</svg>
