<svg width="32" height="32" viewBox="0 0 32 32" fill="none" xmlns="http://www.w3.org/2000/svg">
<rect width="32" height="32" fill="white" fill-opacity="0.01"/>
<path d="M5.5 25.8C5.075 25.8 4.71901 25.6656 4.43201 25.3968C4.14501 25.128 4.00101 24.7957 4.00001 24.4C3.99901 24.0043 4.14301 23.672 4.43201 23.4032C4.721 23.1344 5.077 23 5.5 23H7V13.2C7 11.2633 7.625 9.54274 8.875 8.0382C10.125 6.53367 11.75 5.5476 13.75 5.08V4.1C13.75 3.51667 13.969 3.02107 14.407 2.6132C14.845 2.20534 15.376 2.00094 16 2C16.624 1.99907 17.1555 2.20347 17.5945 2.6132C18.0335 3.02294 18.252 3.51854 18.25 4.1V5.08C20.25 5.54667 21.875 6.53274 23.125 8.0382C24.375 9.54367 25 11.2643 25 13.2V23H26.5C26.925 23 27.2815 23.1344 27.5695 23.4032C27.8575 23.672 28.001 24.0043 28 24.4C27.999 24.7957 27.855 25.1285 27.568 25.3982C27.281 25.6679 26.925 25.8019 26.5 25.8H5.5ZM16 30C15.175 30 14.469 29.7261 13.882 29.1782C13.295 28.6303 13.001 27.9709 13 27.2H19C19 27.97 18.7065 28.6294 18.1195 29.1782C17.5325 29.727 16.826 30.0009 16 30ZM10 23H22V13.2C22 11.66 21.4125 10.3417 20.2375 9.245C19.0625 8.14834 17.65 7.6 16 7.6C14.35 7.6 12.9375 8.14834 11.7625 9.245C10.5875 10.3417 10 11.66 10 13.2V23ZM16 17.4C16.425 17.4 16.7815 17.2656 17.0695 16.9968C17.3575 16.728 17.501 16.3957 17.5 16V11.8C17.5 11.4033 17.356 11.0711 17.068 10.8032C16.78 10.5353 16.424 10.4009 16 10.4C15.576 10.3991 15.22 10.5335 14.932 10.8032C14.644 11.0729 14.5 11.4052 14.5 11.8V16C14.5 16.3967 14.644 16.7294 14.932 16.9982C15.22 17.267 15.576 17.4009 16 17.4ZM16 21.6C16.425 21.6 16.7815 21.4656 17.0695 21.1968C17.3575 20.928 17.501 20.5957 17.5 20.2C17.499 19.8043 17.355 19.472 17.068 19.2032C16.781 18.9344 16.425 18.8 16 18.8C15.575 18.8 15.219 18.9344 14.932 19.2032C14.645 19.472 14.501 19.8043 14.5 20.2C14.499 20.5957 14.643 20.9285 14.932 21.1982C15.221 21.4679 15.577 21.6019 16 21.6Z" fill="#0452A5"/>
</svg>
