<svg width="32" height="32" viewBox="0 0 32 32" fill="none" xmlns="http://www.w3.org/2000/svg">
<rect width="32" height="32" fill="white" fill-opacity="0.01"/>
<path d="M17.4 15.6091V18.1889C17.4 18.5543 17.2656 18.8609 16.9968 19.1086C16.728 19.3562 16.3957 19.4796 16 19.4788C15.6043 19.4779 15.2715 19.3541 15.0018 19.1073C14.7321 18.8605 14.5981 18.5543 14.6 18.1889V15.6091H11.8C11.4033 15.6091 11.0706 15.4852 10.8018 15.2376C10.533 14.9899 10.3991 14.6838 10.4 14.3192C10.4009 13.9546 10.5353 13.6484 10.8032 13.4008C11.0711 13.1531 11.4033 13.0293 11.8 13.0293H14.6V10.4495C14.6 10.084 14.7344 9.77788 15.0032 9.53108C15.272 9.28428 15.6043 9.16045 16 9.15959C16.3957 9.15873 16.728 9.28256 16.9968 9.53108C17.2656 9.7796 17.4 10.0857 17.4 10.4495V13.0293H20.2C20.5967 13.0293 20.9289 13.1531 21.1968 13.4008C21.4647 13.6484 21.5991 13.9546 21.6 14.3192C21.6009 14.6838 21.4665 14.9904 21.1968 15.2389C20.9271 15.4874 20.5948 15.6108 20.2 15.6091H17.4ZM24.4 24.6383L27.62 27.6051C28.0633 28.0136 28.5711 28.1052 29.1432 27.8799C29.7153 27.6546 30.0009 27.2512 30 26.6699V6.57979C30 5.87035 29.7256 5.26324 29.1768 4.75846C28.628 4.25368 27.9691 4.00086 27.2 4H4.8C4.03 4 3.3706 4.25282 2.8218 4.75846C2.273 5.2641 1.99907 5.87121 2 6.57979V22.0586C2 22.768 2.27394 23.3755 2.8218 23.8812C3.36967 24.3868 4.02907 24.6392 4.8 24.6383H24.4ZM25.59 22.0586H4.8V6.57979H27.2V23.5097L25.59 22.0586Z" fill="#0452A5"/>
</svg>
