<svg width="32" height="32" viewBox="0 0 32 32" fill="none" xmlns="http://www.w3.org/2000/svg">
<rect width="32" height="32" fill="white" fill-opacity="0.01"/>
<path d="M6.4 22.9474V25.4737H25.6V22.9474H6.4ZM10 9.05263V6.52632C10 5.83158 10.2352 5.23705 10.7056 4.74274C11.176 4.24842 11.7408 4.00084 12.4 4H19.6C20.26 4 20.8252 4.24758 21.2956 4.74274C21.766 5.23789 22.0008 5.83242 22 6.52632V9.05263H25.6C26.26 9.05263 26.8252 9.30021 27.2956 9.79537C27.766 10.2905 28.0008 10.8851 28 11.5789V25.4737C28 26.1684 27.7652 26.7634 27.2956 27.2585C26.826 27.7537 26.2608 28.0008 25.6 28H6.4C5.74 28 5.1752 27.7528 4.7056 27.2585C4.236 26.7642 4.0008 26.1693 4 25.4737V11.5789C4 10.8842 4.2352 10.2897 4.7056 9.79537C5.176 9.30105 5.7408 9.05347 6.4 9.05263H10ZM6.4 19.1579H25.6V11.5789H22V14.1053H19.6V11.5789H12.4V14.1053H10V11.5789H6.4V19.1579ZM12.4 9.05263H19.6V6.52632H12.4V9.05263Z" fill="#0452A5"/>
</svg>
