<svg width="32" height="32" viewBox="0 0 32 32" fill="none" xmlns="http://www.w3.org/2000/svg">
<rect width="32" height="32" fill="white" fill-opacity="0.01"/>
<path d="M16 30C14.0633 30 12.2433 29.6323 10.54 28.8968C8.83666 28.1613 7.355 27.1641 6.095 25.905C4.835 24.6459 3.83773 23.1643 3.1032 21.46C2.36867 19.7557 2.00094 17.9357 2 16C1.99907 14.0643 2.3668 12.2443 3.1032 10.54C3.8396 8.83573 4.83687 7.35407 6.095 6.095C7.35313 4.83593 8.8348 3.83867 10.54 3.1032C12.2452 2.36773 14.0652 2 16 2C17.9348 2 19.7548 2.36773 21.46 3.1032C23.1652 3.83867 24.6469 4.83593 25.905 6.095C27.1631 7.35407 28.1609 8.83573 28.8982 10.54C29.6355 12.2443 30.0028 14.0643 30 16C29.9972 17.9357 29.6294 19.7557 28.8968 21.46C28.1641 23.1643 27.1669 24.6459 25.905 25.905C24.6431 27.1641 23.1615 28.1618 21.46 28.8982C19.7585 29.6346 17.9385 30.0019 16 30ZM14.6 27.13V24.4C13.83 24.4 13.1711 24.1261 12.6232 23.5782C12.0753 23.0303 11.8009 22.3709 11.8 21.6V20.2L5.08 13.48C5.01 13.9 4.94607 14.32 4.8882 14.74C4.83033 15.16 4.80093 15.58 4.8 16C4.8 18.8233 5.72773 21.2967 7.5832 23.42C9.43866 25.5433 11.7776 26.78 14.6 27.13ZM24.26 23.56C24.7267 23.0467 25.1467 22.4927 25.52 21.8982C25.8933 21.3037 26.2023 20.6853 26.4468 20.0432C26.6913 19.4011 26.878 18.7417 27.0068 18.065C27.1356 17.3883 27.2 16.7 27.2 16C27.2 13.7133 26.5639 11.625 25.2918 9.735C24.0197 7.845 22.3224 6.48 20.2 5.64V6.2C20.2 6.97 19.9261 7.6294 19.3782 8.1782C18.8303 8.727 18.1709 9.00093 17.4 9H14.6V11.8C14.6 12.1967 14.4656 12.5294 14.1968 12.7982C13.928 13.067 13.5957 13.2009 13.2 13.2H10.4V16H18.8C19.1967 16 19.5294 16.1344 19.7982 16.4032C20.067 16.672 20.2009 17.0043 20.2 17.4V21.6H21.6C22.2067 21.6 22.755 21.7811 23.245 22.1432C23.735 22.5053 24.0733 22.9776 24.26 23.56Z" fill="#0452A5"/>
</svg>
