<svg width="16" height="16" viewBox="0 0 16 16" fill="none" xmlns="http://www.w3.org/2000/svg">
<rect width="16" height="16" fill="white" fill-opacity="0.01"/>
<path d="M14.7152 4.57223C14.6355 4.27063 14.4798 3.99558 14.2636 3.77446C14.0473 3.55334 13.7781 3.39385 13.4827 3.31188C12.3872 3.005 8.00485 3.00001 8.00485 3.00001C8.00485 3.00001 3.62315 2.99501 2.52702 3.28833C2.23178 3.37407 1.96309 3.53581 1.74677 3.75802C1.53044 3.98023 1.37374 4.25544 1.29169 4.55724C1.0028 5.67485 1 7.99286 1 7.99286C1 7.99286 0.997203 10.3223 1.284 11.4285C1.44489 12.0401 1.91705 12.5233 2.51723 12.6881C3.62385 12.995 7.99435 13 7.99435 13C7.99435 13 12.3768 13.005 13.4722 12.7124C13.7677 12.6306 14.0372 12.4714 14.254 12.2508C14.4708 12.0301 14.6273 11.7555 14.7082 11.4542C14.9978 10.3373 14.9999 8.01998 14.9999 8.01998C14.9999 8.01998 15.0139 5.68984 14.7152 4.57223ZM6.60304 10.1403L6.60654 5.85827L10.2489 8.00285L6.60304 10.1403Z" fill="#0452A5"/>
</svg>
