<svg width="120" height="48" viewBox="0 0 120 48" fill="none" xmlns="http://www.w3.org/2000/svg">
<g clip-path="url(#clip0_441_1495)">
<path d="M55.9297 42.2857H59.1068V29.9086H55.9297V42.2857ZM55.9297 27.9784H59.1068V25.0349H55.9297V27.9784Z" fill="black"/>
<path d="M61.1538 46.3391H64.3309V40.8864H64.3777C65.0551 41.9479 66.1531 42.6476 67.8351 42.6476C70.9188 42.6476 73.0213 40.1143 73.0213 36.1092C73.0213 32.2488 70.9889 29.5707 67.8118 29.5707C66.1765 29.5707 65.0551 30.3669 64.2842 31.4526H64.2141V29.9085H61.1538V46.3391ZM67.1577 39.9212C65.2654 39.9212 64.2609 38.4495 64.2609 36.2057C64.2609 33.986 65.0551 32.2247 67.0408 32.2247C69.0032 32.2247 69.7974 33.8653 69.7974 36.2057C69.7974 38.546 68.7696 39.9212 67.1577 39.9212Z" fill="black"/>
<path d="M79.3587 42.6476C82.3489 42.6476 84.4046 41.1517 84.4046 38.6666C84.4046 35.7714 82.1854 35.1924 80.1764 34.7581C78.4709 34.3962 76.8824 34.2996 76.8824 33.2381C76.8824 32.3454 77.7 31.8627 78.9382 31.8627C80.2931 31.8627 81.1108 32.3454 81.2509 33.6723H84.1244C83.8907 31.1873 82.1387 29.5707 78.9849 29.5707C76.2517 29.5707 74.1024 30.8495 74.1024 33.5275C74.1024 36.2298 76.205 36.833 78.3541 37.2673C79.9894 37.605 81.5079 37.7257 81.5079 38.9079C81.5079 39.7765 80.7136 40.3314 79.3119 40.3314C77.8869 40.3314 76.9057 39.7041 76.6955 38.2806H73.752C73.9389 40.9105 75.8779 42.6476 79.3587 42.6476Z" fill="black"/>
<path d="M96.4674 42.2857V29.9086H93.2903V37.0501C93.2903 38.6908 92.3792 39.8489 90.8841 39.8489C89.5292 39.8489 88.8984 39.0527 88.8984 37.605V29.9086H85.7446V38.16C85.7446 40.8622 87.2398 42.6235 89.903 42.6235C91.5849 42.6235 92.5193 41.9721 93.3371 40.8381H93.4072V42.2857H96.4674Z" fill="black"/>
<path d="M98.5225 42.2857H101.7V35.0958C101.7 33.4551 102.564 32.3936 103.849 32.3936C105.017 32.3936 105.694 33.1173 105.694 34.5168V42.2857H108.872V35.0958C108.872 33.4551 109.689 32.3936 111.021 32.3936C112.189 32.3936 112.866 33.1173 112.866 34.5168V42.2857H116.043V33.9619C116.043 31.2596 114.618 29.5707 112.095 29.5707C110.577 29.5707 109.315 30.3911 108.498 31.7421H108.451C107.867 30.4393 106.652 29.5707 105.134 29.5707C103.475 29.5707 102.307 30.4393 101.653 31.5733H101.583V29.9085H98.5225V42.2857Z" fill="black"/>
<path d="M55.9761 21.0864H59.1532V3.83557H55.9761V21.0864Z" fill="black"/>
<path d="M66.9219 21.4483C70.6364 21.4483 73.1828 18.6013 73.1828 14.9099C73.1828 11.2184 70.6364 8.37146 66.9219 8.37146C63.2076 8.37146 60.6611 11.2184 60.6611 14.9099C60.6611 18.6013 63.2076 21.4483 66.9219 21.4483ZM66.9219 18.9391C64.9596 18.9391 63.8851 17.3226 63.8851 14.9099C63.8851 12.4972 64.9596 10.8566 66.9219 10.8566C68.8609 10.8566 69.9589 12.4972 69.9589 14.9099C69.9589 17.3226 68.8609 18.9391 66.9219 18.9391Z" fill="black"/>
<path d="M79.9389 25.3087C81.7144 25.3087 83.2562 24.8744 84.2607 23.9093C85.1484 23.0648 85.6858 21.8826 85.6858 20.1455V8.70924H82.6254V10.0121H82.5787C81.8545 8.97463 80.7565 8.37146 79.2614 8.37146C76.2245 8.37146 74.0752 10.7359 74.0752 14.4274C74.0752 18.167 76.6917 20.3384 79.3549 20.3384C80.8734 20.3384 81.7844 19.7112 82.4853 18.8909H82.5554V20.242C82.5554 21.9308 81.691 22.8235 79.8922 22.8235C78.4204 22.8235 77.743 22.2204 77.486 21.4483H74.3322C74.6593 23.861 76.6683 25.3087 79.9389 25.3087ZM79.8922 17.7086C78.2569 17.7086 77.1822 16.4782 77.1822 14.3791C77.1822 12.3042 78.2569 11.0013 79.8688 11.0013C81.7844 11.0013 82.7188 12.5454 82.7188 14.355C82.7188 16.1886 81.9012 17.7086 79.8922 17.7086Z" fill="black"/>
<path d="M93.4083 21.4483C97.1227 21.4483 99.6691 18.6013 99.6691 14.9099C99.6691 11.2184 97.1227 8.37146 93.4083 8.37146C89.6939 8.37146 87.1475 11.2184 87.1475 14.9099C87.1475 18.6013 89.6939 21.4483 93.4083 21.4483ZM93.4083 18.9391C91.4459 18.9391 90.3713 17.3226 90.3713 14.9099C90.3713 12.4972 91.4459 10.8566 93.4083 10.8566C95.3473 10.8566 96.4453 12.4972 96.4453 14.9099C96.4453 17.3226 95.3473 18.9391 93.4083 18.9391Z" fill="black"/>
<path d="M102.454 16.3575H116.19V13.5347H102.454V16.3575Z" fill="black"/>
<path d="M117.198 27.806C117.198 27.2508 117.633 26.8007 118.171 26.8007H120.118C120.656 26.8007 121.091 27.2508 121.091 27.806C121.091 28.3611 120.656 28.8113 120.118 28.8113H118.171C117.633 28.8113 117.198 28.3611 117.198 27.806Z" fill="black"/>
<path fill-rule="evenodd" clip-rule="evenodd" d="M23.844 0C36.6781 0 47.0821 10.7452 47.0821 24C47.0821 37.2548 36.6781 48 23.844 48C11.01 48 0.605957 37.2548 0.605957 24C0.605957 10.7452 11.01 0 23.844 0ZM23.0041 1.79591C20.3531 2.18123 17.8287 4.3813 15.8692 8.06088C15.3008 9.1282 14.7879 10.3074 14.3409 11.5805C17.0054 10.889 19.9324 10.4813 23.0041 10.4182V1.79591ZM12.377 12.157C12.9327 10.3555 13.6127 8.69808 14.3973 7.22478C15.3686 5.40071 16.5215 3.82554 17.8204 2.61572C10.7573 4.73428 5.18993 10.4841 3.13865 17.7788C4.31004 16.4374 5.83522 15.2467 7.60138 14.2435C9.02791 13.4332 10.6327 12.7309 12.377 12.157ZM11.8188 14.1853C11.1493 16.9372 10.7545 19.9601 10.6935 23.1325H2.34484C2.71794 20.3945 4.84817 17.7874 8.41094 15.7637C9.44437 15.1766 10.5861 14.647 11.8188 14.1853ZM12.3737 23.1325C12.4431 19.6704 12.9256 16.4201 13.7241 13.5482C16.5048 12.7236 19.652 12.2251 23.0041 12.1535V15.901C21.7535 19.2074 19.2029 21.8414 16.0013 23.1325H12.3737ZM10.6935 24.8675H2.34484C2.71794 27.6055 4.84817 30.2125 8.41094 32.2363C9.44437 32.8234 10.5861 33.353 11.8188 33.8147C11.1493 31.0628 10.7545 28.0399 10.6935 24.8675ZM13.7241 34.4518C12.9256 31.5799 12.4431 28.3296 12.3737 24.8675H16.0013C19.2029 26.1586 21.7537 28.7926 23.0041 32.099V35.8465C19.652 35.7749 16.5048 35.2764 13.7241 34.4518ZM12.377 35.843C10.6327 35.2691 9.02791 34.5668 7.60138 33.7565C5.83522 32.7533 4.31004 31.5626 3.13865 30.2212C5.18993 37.5158 10.7573 43.2658 17.8204 45.3842C16.5215 44.1744 15.3686 42.5993 14.3973 40.7752C13.6127 39.3019 12.9327 37.6445 12.377 35.843ZM23.0041 46.2041C20.3531 45.8188 17.8287 43.6187 15.8692 39.9391C15.3008 38.8718 14.7879 37.6926 14.3409 36.4195C17.0054 37.111 19.9324 37.5187 23.0041 37.5817V46.2041ZM29.8677 45.3842C31.1666 44.1744 32.3194 42.5993 33.2909 40.7752C34.0754 39.3019 34.7554 37.6445 35.3111 35.843C37.0554 35.2691 38.6602 34.5668 40.0868 33.7565C41.8529 32.7533 43.3781 31.5626 44.5494 30.2212C42.4982 37.5158 36.9308 43.2658 29.8677 45.3842ZM33.3471 36.4195C32.9002 37.6926 32.3873 38.8718 31.8189 39.9391C29.8595 43.6187 27.3351 45.8188 24.684 46.2041V37.5817C27.7557 37.5187 30.6827 37.111 33.3471 36.4195ZM35.8693 33.8147C37.102 33.353 38.2438 32.8234 39.2772 32.2363C42.8399 30.2125 44.9701 27.6055 45.3432 24.8675H36.9946C36.9336 28.0399 36.5388 31.0628 35.8693 33.8147ZM35.3145 24.8675C35.2451 28.3296 34.7625 31.5799 33.964 34.4518C31.1833 35.2764 28.0362 35.7749 24.684 35.8465V32.1018C25.9341 28.7941 28.4853 26.1589 31.6878 24.8675H35.3145ZM36.9946 23.1325H45.3432C44.9701 20.3945 42.8399 17.7874 39.2772 15.7637C38.2438 15.1766 37.102 14.647 35.8693 14.1853C36.5388 16.9372 36.9336 19.9601 36.9946 23.1325ZM33.964 13.5482C34.7625 16.4201 35.2451 19.6704 35.3145 23.1325H31.6878C28.4853 21.8411 25.9341 19.2059 24.684 15.8982V12.1535C28.0362 12.2251 31.1833 12.7236 33.964 13.5482ZM35.3111 12.157C37.0554 12.7309 38.6602 13.4332 40.0868 14.2435C41.8529 15.2467 43.3781 16.4374 44.5494 17.7788C42.4982 10.4841 36.9308 4.73428 29.8677 2.61572C31.1666 3.82554 32.3194 5.40071 33.2909 7.22478C34.0754 8.69808 34.7554 10.3555 35.3111 12.157ZM24.684 1.79591C27.3351 2.18123 29.8595 4.3813 31.8189 8.06088C32.3873 9.12821 32.9002 10.3074 33.3471 11.5805C30.6827 10.889 27.7557 10.4813 24.684 10.4182V1.79591Z" fill="black"/>
</g>
<defs>
<clipPath id="clip0_441_1495">
<rect width="122" height="48" fill="white"/>
</clipPath>
</defs>
</svg>
