<svg width="80" height="80" viewBox="0 0 80 80" fill="none" xmlns="http://www.w3.org/2000/svg">
<rect width="80" height="80" rx="40" fill="#D9F2FF"/>
<path fill-rule="evenodd" clip-rule="evenodd" d="M57.46 30.24L57.18 29.74C56.8188 29.1354 56.3094 28.6329 55.7 28.28L42.28 20.54C41.6724 20.1875 40.9826 20.0012 40.28 20H39.7C38.9974 20.0012 38.3076 20.1875 37.7 20.54L24.28 28.3C23.6739 28.6505 23.1705 29.1539 22.82 29.76L22.54 30.26C22.1875 30.8677 22.0012 31.5575 22 32.26V47.76C22.0012 48.4626 22.1875 49.1524 22.54 49.76L22.82 50.26C23.1796 50.859 23.681 51.3604 24.28 51.72L37.72 59.46C38.3246 59.8198 39.0164 60.0066 39.72 60H40.28C40.9826 59.9988 41.6724 59.8126 42.28 59.46L55.7 51.7C56.312 51.3574 56.8174 50.852 57.16 50.24L57.46 49.74C57.8082 49.1306 57.9942 48.442 58 47.74V32.24C57.9988 31.5375 57.8126 30.8477 57.46 30.24ZM39.7 24H40.28L52 30.76L40 37.68L28 30.76L39.7 24ZM42 55L53.7 48.24L54 47.74V34.22L42 41.16V55Z" fill="#0452A5"/>
</svg>
